<!-- original artwork for ReWorkspace -->
<svg xmlns="http://www.w3.org/2000/svg" width="48" height="48" viewBox="0 0 48 48" shape-rendering="crispEdges"><defs><pattern id="d" width="2" height="2" patternUnits="userSpaceOnUse"><path d="M0 0h1v1H0zM1 1h1v1H1z" fill="#555"/></pattern><pattern id="k" width="2" height="2" patternUnits="userSpaceOnUse"><path d="M0 0h1v1H0zM1 1h1v1H1z" fill="#000"/></pattern><pattern id="w" width="2" height="2" patternUnits="userSpaceOnUse"><path d="M0 0h1v1H0zM1 1h1v1H1z" fill="#fff"/></pattern></defs><path d="M9 17H21L24 21H45V43H9Z" fill="url(#k)"/><path d="M6.5 12.5H18.5L21.5 16.5H42.5V40.5H6.5Z" fill="#aaa" stroke="#000"/><path d="M7 17H42V40H7Z" fill="url(#d)"/><rect x="12.5" y="14.5" width="22" height="10" fill="#fff" stroke="#000"/><path d="M15 17.5H32M15 20.5H32" stroke="#555"/><rect x="15.5" y="16.5" width="22" height="9" fill="#fff" stroke="#000"/><path d="M18 19.5H35M18 22.5H35" stroke="#555"/><path d="M6.5 22.5H42.5V40.5H6.5Z" fill="#aaa" stroke="#000"/><path d="M7 23.5H42" stroke="#fff"/><path d="M7 39.5H42" stroke="#555"/></svg>
