<!-- original artwork for ReWorkspace -->
<svg xmlns="http://www.w3.org/2000/svg" width="48" height="48" viewBox="0 0 48 48" shape-rendering="crispEdges"><defs><pattern id="d" width="2" height="2" patternUnits="userSpaceOnUse"><path d="M0 0h1v1H0zM1 1h1v1H1z" fill="#555"/></pattern><pattern id="k" width="2" height="2" patternUnits="userSpaceOnUse"><path d="M0 0h1v1H0zM1 1h1v1H1z" fill="#000"/></pattern><pattern id="w" width="2" height="2" patternUnits="userSpaceOnUse"><path d="M0 0h1v1H0zM1 1h1v1H1z" fill="#fff"/></pattern></defs><path d="M9 14H43V40H9Z" fill="url(#k)"/><rect x="6.5" y="10.5" width="35" height="27" fill="#aaa" stroke="#000"/><rect x="6.5" y="10.5" width="35" height="6" fill="#000"/><rect x="8" y="12" width="3" height="3" fill="#aaa"/><rect x="36" y="12" width="3" height="3" fill="#aaa"/><path d="M7 17.5H41" stroke="#fff"/><rect x="7" y="19" width="34" height="18" fill="#fff"/></svg>
